#N canvas 1101 578 639 422 10;
#X msg 91 93 set \$1;
#X obj 177 121 param.get \$2;
#X obj 91 72 r \$3-\$1;
#X obj 91 114 s \$3-\$1-set;
#X obj 169 89 param.set \$2 \$3-\$1;
#X obj 176 141 s \$3-\$1;
#X obj 333 160 f;
#X obj 298 162 f;
#X obj 333 137 r \$3-\$1;
#X obj 299 197 pack 0 s;
#X obj 403 150 loadbang;
#X obj 403 173 symbol \$1;
#X obj 298 104 r \$3-grab-all-params;
#X obj 298 223 s \$3-grabbed-param;
#X obj 471 151 r \$3-param-readname;
#X connect 0 0 3 0;
#X connect 1 0 5 0;
#X connect 2 0 0 0;
#X connect 6 0 7 1;
#X connect 7 0 9 0;
#X connect 8 0 6 0;
#X connect 9 0 13 0;
#X connect 10 0 11 0;
#X connect 11 0 9 1;
#X connect 12 0 7 0;
#X connect 14 0 11 0;
