#N canvas 0 109 1280 669 12;
#X declare -path lib/quacktrip~ -path lib;
#X text 33 183 server;
#X symbolatom 35 204 32 0 0 0 - #0-server-set #0-server;
#X obj 179 294 tgl 15 0 \$0-onoff \$0-onoff-set empty 17 7 0 10 -262144
-1 -1 0 1;
#X obj 95 92 vradio 15 1 0 3 \$0-blksel \$0-blksel-set empty 0 -8 0
10 -262144 -1 -1 3;
#X text 114 88 64;
#X text 112 105 128;
#X text 113 119 256;
#X obj 48 89 vradio 15 1 0 3 \$0-nchan \$0-nchan-set empty 0 -8 0 10
-262144 -1 -1 1;
#X text 65 86 0;
#X text 66 101 1;
#X text 66 116 2;
#X text 42 68 chnls;
#X text 92 59 block size, f 5;
#X obj 147 120 tgl 15 0 \$0-2x \$0-2x-set empty 17 7 0 10 -262144 -1
-1 0 1;
#X text 144 99 2X;
#X floatatom 73 228 6 1000 100000 0 - #0-port-set #0-port;
#X text 36 228 port;
#X floatatom 634 485 2 1 8 0 - #0-this-caller-set #0-this-caller;
#X obj 525 -45 declare -path lib/quacktrip~ -path lib;
#X obj 371 25 setctl \$0-onoff;
#X obj 369 50 setctl \$0-server;
#X obj 366 151 setctl \$0-blksel;
#X obj 366 129 setctl \$0-nchan;
#X obj 365 175 setctl \$0-2x;
#X floatatom 250 35 3 0 100 0 - #0-lvl-set #0-lvl;
#X obj 172 102 bng 15 250 50 0 \$0-mute \$0-mute-set empty 0 0 0 12
-262144 -1 -1;
#X obj 251 59 vu 8 80 \$0-vu1 empty -1 -8 0 10 -66577 -1 0 0;
#X text 191 99 mute;
#X obj 263 59 vu 8 80 \$0-vu2 empty -1 -8 0 10 -66577 -1 0 0;
#X obj 172 121 tgl 15 0 \$0-test empty empty 17 7 0 10 -262144 -1 -1
0 1;
#X text 188 119 test;
#N canvas 458 86 681 644 input-audio 0;
#X obj 489 257 t b;
#X obj 489 204 f;
#X obj 489 282 f;
#X msg 603 281 0;
#X obj 489 234 moses 1;
#X obj 603 253 t b f;
#X obj 569 214 moses 1;
#X msg 394 166 \; pd dsp 1;
#X obj 9 89 hip~ 3;
#X obj 481 16 r \$0-lvl;
#X msg 481 41 set \$1;
#X obj 481 66 s \$0-lvl-set;
#X obj 331 49 r \$0-lvl;
#X obj 331 81 f;
#X obj 568 185 r \$0-lvl;
#X obj 489 308 s \$0-lvl;
#X obj 489 177 r \$0-mute;
#X obj 331 106 max 0;
#X text 509 145 MUTE logic;
#X obj 323 210 line~;
#X obj 323 170 pack 0 30, f 5;
#X obj 8 247 *~;
#X obj 199 366 abs~;
#X obj 199 391 slop~ 0 0 0.3 0 1e+09;
#X obj 535 395 metro 100;
#X obj 196 429 snapshot~;
#X obj 196 454 rmstodb;
#X obj 196 479 moses 1;
#X msg 197 514 -100;
#X obj 244 509 - 88;
#X obj 113 250 *~;
#X obj 536 367 loadbang;
#X obj 364 364 abs~;
#X obj 364 389 slop~ 0 0 0.3 0 1e+09;
#X obj 361 427 snapshot~;
#X obj 361 452 rmstodb;
#X obj 361 477 moses 1;
#X msg 362 512 -100;
#X obj 409 507 - 88;
#X obj 195 550 s \$0-vu1;
#X obj 360 548 s \$0-vu2;
#X obj 303 134 expr pow($f1*0.02 \, 4);
#X obj 44 376 outlet~;
#X obj 108 378 outlet~;
#X obj 53 117 osc~ 660;
#X obj 35 171 -~;
#X obj 35 215 *~ 0;
#X obj 9 65 adc~ 1;
#X obj 112 84 hip~ 3;
#X obj 138 166 -~;
#X obj 138 210 *~ 0;
#X obj 198 178 r \$0-test;
#X obj 112 60 adc~ 2;
#X obj 53 142 *~ 0.03;
#X obj 167 139 *~ 0.03;
#X obj 166 114 osc~ 880;
#X connect 0 0 2 0;
#X connect 1 0 4 0;
#X connect 2 0 15 0;
#X connect 3 0 15 0;
#X connect 4 0 0 0;
#X connect 4 1 5 0;
#X connect 5 0 3 0;
#X connect 6 1 2 1;
#X connect 8 0 21 0;
#X connect 8 0 45 1;
#X connect 9 0 10 0;
#X connect 10 0 11 0;
#X connect 12 0 13 0;
#X connect 13 0 17 0;
#X connect 14 0 1 1;
#X connect 14 0 6 0;
#X connect 16 0 1 0;
#X connect 17 0 41 0;
#X connect 19 0 21 1;
#X connect 19 0 30 1;
#X connect 20 0 19 0;
#X connect 21 0 42 0;
#X connect 21 0 22 0;
#X connect 22 0 23 0;
#X connect 23 0 25 0;
#X connect 24 0 25 0;
#X connect 24 0 34 0;
#X connect 25 0 26 0;
#X connect 26 0 27 0;
#X connect 27 0 28 0;
#X connect 27 1 29 0;
#X connect 28 0 39 0;
#X connect 29 0 39 0;
#X connect 30 0 43 0;
#X connect 30 0 32 0;
#X connect 31 0 24 0;
#X connect 32 0 33 0;
#X connect 33 0 34 0;
#X connect 34 0 35 0;
#X connect 35 0 36 0;
#X connect 36 0 37 0;
#X connect 36 1 38 0;
#X connect 37 0 40 0;
#X connect 38 0 40 0;
#X connect 41 0 20 0;
#X connect 41 0 7 0;
#X connect 44 0 53 0;
#X connect 45 0 46 0;
#X connect 46 0 21 0;
#X connect 47 0 8 0;
#X connect 48 0 49 1;
#X connect 48 0 30 0;
#X connect 49 0 50 0;
#X connect 50 0 30 0;
#X connect 51 0 50 1;
#X connect 51 0 46 1;
#X connect 52 0 48 0;
#X connect 53 0 45 0;
#X connect 54 0 49 0;
#X connect 55 0 54 0;
#X restore 357 212 pd input-audio;
#X obj 370 75 setctl \$0-port;
#X obj 367 265 quacktrip~;
#N canvas 420 73 668 550 to-quacktrip 0;
#X obj 20 512 outlet;
#X obj 134 371 sel 1 0;
#X msg 153 435 off;
#X obj 489 406 r \$0-fifo-size;
#X msg 466 436 nbuf \$1;
#X msg 188 437 block \$1;
#X msg 282 439 nchan \$1;
#X obj 188 407 r \$0-block;
#X obj 134 344 r \$0-onoff;
#X obj 282 409 r \$0-nchan;
#X msg 379 438 repeat \$1;
#X obj 377 410 r \$0-2x;
#X msg 34 432 client \$2 \$3;
#X obj 79 167 r \$0-server;
#X obj 37 400 pack 0 s 0;
#X obj 120 198 r \$0-port;
#X obj 138 229 r \$0-this-caller;
#X obj 137 255 t b f;
#X floatatom 123 316 6 0 0 0 - - -;
#X obj 111 291 expr $f1 + $f2 + 200*($f2>10);
#X obj 470 343 loadbang;
#X msg 470 374 100;
#X connect 1 0 14 0;
#X connect 1 1 2 0;
#X connect 2 0 0 0;
#X connect 3 0 4 0;
#X connect 4 0 0 0;
#X connect 5 0 0 0;
#X connect 6 0 0 0;
#X connect 7 0 5 0;
#X connect 8 0 1 0;
#X connect 9 0 6 0;
#X connect 10 0 0 0;
#X connect 11 0 10 0;
#X connect 12 0 0 0;
#X connect 13 0 14 1;
#X connect 14 0 12 0;
#X connect 15 0 19 0;
#X connect 16 0 17 0;
#X connect 17 0 19 0;
#X connect 17 1 19 1;
#X connect 19 0 14 2;
#X connect 19 0 18 0;
#X connect 20 0 21 0;
#X connect 21 0 4 0;
#X restore 467 231 pd to-quacktrip;
#X obj 413 378 loadbang;
#X obj 347 378 f \$0;
#X obj 390 380 bng 15 250 50 0 empty empty empty 17 7 0 10 -262144
-1 -1;
#X obj 370 100 setctl \$0-this-caller;
#X floatatom 37 348 6 0 0 0 - #0-local-sr-set #0-local-sr;
#X floatatom 99 348 3 0 0 0 - #0-local-ch-set #0-local-ch;
#X floatatom 150 348 4 0 0 0 - #0-local-blk-set #0-local-blk;
#X text 34 314 sample rate, f 6;
#X text 144 315 block size, f 5;
#X text 82 327 channels;
#X floatatom 197 348 5 0 0 0 - #0-local-kbits-set #0-local-kbits;
#X obj 593 158 samplerate~;
#X obj 593 183 s \$0-local-sr-set;
#X obj 602 237 s \$0-local-ch-set;
#X obj 591 -3 r \$0-blksel;
#X msg 591 47 64;
#X msg 621 47 128;
#X msg 651 47 256;
#X obj 591 72 s \$0-block;
#X obj 593 105 loadbang;
#X obj 593 130 metro 1000;
#X obj 601 212 r \$0-nchan;
#X obj 752 -3 r \$0-block;
#X obj 753 23 s \$0-local-blk-set;
#X obj 381 306 route got-packet drop late miss request-call no-peer-yet
running bw, f 68;
#X obj 652 335 unpack;
#X floatatom 363 410 5 0 0 0 - - -;
#X obj 472 264 print to-q;
#X obj 757 466 r \$0-server;
#X msg 757 491 0;
#X obj 757 516 s \$0-onoff;
#X symbolatom 157 160 16 0 0 0 - #0-session-name-set #0-session-name
;
#X obj 38 36 tgl 15 0 \$0-call \$0-call-set empty 17 7 0 10 -262144
-1 -1 0 1;
#X text 57 34 CALL;
#X obj 373 -43 setctl \$0-call;
#N canvas 697 3 870 1057 set-up-call 0;
#X obj 203 90 tgl 15 0 empty empty empty 17 7 0 10 -262144 -1 -1 0
1;
#X msg 352 139 0;
#X obj 352 164 s \$0-onoff;
#X obj 187 29 r \$0-call;
#X obj 187 54 change;
#X obj 187 122 t f f b;
#X obj 210 173 v \$0-call;
#X obj 187 204 != 0;
#X obj 186 235 tgl 15 0 empty empty empty 17 7 0 10 -262144 -1 -1 0
1;
#X obj 186 259 metro 1000;
#X obj 205 505 netsend -u;
#X obj 266 343 r \$0-server;
#X obj 232 396 pack 0 s 0;
#X obj 279 368 r \$0-port;
#X obj 272 538 route channels;
#X obj 233 316 sel 0;
#X obj 187 286 t b b;
#X msg 232 427 connect \$2 \$3;
#X obj 98 572 v \$0-control-connected;
#X obj 235 291 v \$0-control-connected;
#X obj 463 348 v \$0-control-connected;
#X obj 463 373 sel 1;
#X msg 467 402 disconnect;
#X obj 68 444 pack 0 s s;
#X obj 101 378 r \$0-session-name;
#X obj 120 406 r \$0-my-name;
#X obj 290 565 print channels;
#X obj 277 643 spigot;
#X obj 272 614 t l f;
#X obj 322 617 int;
#X obj 276 1007 s \$0-this-caller;
#X obj 296 983 s \$0-1-channel-name;
#X obj 317 956 s \$0-2-channel-name;
#X obj 337 925 s \$0-3-channel-name;
#X obj 358 901 s \$0-4-channel-name;
#X obj 379 874 s \$0-5-channel-name;
#X obj 399 847 s \$0-6-channel-name;
#X obj 420 823 s \$0-7-channel-name;
#X obj 441 796 s \$0-8-channel-name;
#X obj 490 42 r \$0-my-name;
#X obj 451 77 symbol;
#X obj 451 102 sel -;
#N canvas 666 89 1178 737 make-up-name 0;
#X obj 622 231 text define -k \$0-letters;
#A set b f g c p s \; k m n t v z \; h l q r w y \; a e i o u y \;
c s l r m p \; f g k n r t \;;
#X obj 212 102 realtime;
#X obj 213 137 t f f;
#X obj 210 171 * 0.01234;
#X obj 210 196 mod 1e+06;
#X obj 313 201 mod 1e+06;
#X obj 210 221 +;
#X obj 475 290 mod 6;
#X obj 432 289 div 6;
#X obj 210 286 t b f;
#X obj 432 316 mod 6;
#X obj 389 315 div 6;
#X obj 390 344 mod 6;
#X obj 347 343 div 6;
#X obj 347 370 mod 6;
#X obj 304 369 div 6;
#X obj 302 400 mod 6;
#X obj 259 399 div 6;
#X obj 259 426 mod 6;
#X obj 260 503 text get \$0-letters;
#X obj 259 451 t b f;
#X msg 260 476 0;
#X obj 260 528 list fromsymbol;
#X obj 246 623 list tosymbol;
#X obj 246 593 pack 0 0 0 0 0 0;
#X obj 242 563 f;
#X obj 404 501 text get \$0-letters;
#X obj 403 449 t b f;
#X obj 404 526 list fromsymbol;
#X obj 552 499 text get \$0-letters;
#X obj 551 447 t b f;
#X obj 552 524 list fromsymbol;
#X obj 696 497 text get \$0-letters;
#X obj 695 445 t b f;
#X obj 696 522 list fromsymbol;
#X obj 838 500 text get \$0-letters;
#X obj 837 448 t b f;
#X obj 838 525 list fromsymbol;
#X obj 982 498 text get \$0-letters;
#X obj 981 446 t b f;
#X obj 982 523 list fromsymbol;
#X symbolatom 276 653 10 0 0 0 - - -;
#X msg 404 474 1;
#X msg 552 472 2;
#X msg 696 470 3;
#X msg 838 473 4;
#X msg 982 471 5;
#X obj 265 38 inlet;
#X obj 247 688 outlet;
#X text 324 691 somebody has too much time on his hands.;
#X obj 264 73 bng 15 250 50 0 empty empty empty 17 7 0 10 -262144 -1
-1;
#X floatatom 226 250 8 0 0 0 - - -;
#X floatatom 280 132 10 0 0 0 - - -;
#X obj 86 245 mod 100;
#X obj 86 270 *;
#X obj 134 35 loadbang;
#X obj 134 60 metro 1e+06;
#X obj 154 105 bng 15 250 50 0 empty empty empty 17 7 0 10 -262144
-1 -1;
#X obj 313 171 * 573.24;
#X connect 1 0 2 0;
#X connect 2 0 3 0;
#X connect 2 1 52 0;
#X connect 2 1 58 0;
#X connect 3 0 4 0;
#X connect 4 0 6 0;
#X connect 5 0 6 1;
#X connect 6 0 9 0;
#X connect 6 0 51 0;
#X connect 7 0 39 0;
#X connect 8 0 10 0;
#X connect 8 0 11 0;
#X connect 9 0 25 0;
#X connect 9 1 8 0;
#X connect 9 1 7 0;
#X connect 10 0 36 0;
#X connect 11 0 12 0;
#X connect 11 0 13 0;
#X connect 12 0 33 0;
#X connect 13 0 14 0;
#X connect 13 0 15 0;
#X connect 14 0 30 0;
#X connect 15 0 16 0;
#X connect 15 0 17 0;
#X connect 16 0 27 0;
#X connect 17 0 18 0;
#X connect 18 0 20 0;
#X connect 19 0 22 0;
#X connect 20 0 21 0;
#X connect 20 1 19 1;
#X connect 21 0 19 0;
#X connect 22 0 25 1;
#X connect 23 0 41 0;
#X connect 23 0 48 0;
#X connect 24 0 23 0;
#X connect 25 0 24 0;
#X connect 26 0 28 0;
#X connect 27 0 42 0;
#X connect 27 1 26 1;
#X connect 28 0 24 1;
#X connect 29 0 31 0;
#X connect 30 0 43 0;
#X connect 30 1 29 1;
#X connect 31 0 24 2;
#X connect 32 0 34 0;
#X connect 33 0 44 0;
#X connect 33 1 32 1;
#X connect 34 0 24 3;
#X connect 35 0 37 0;
#X connect 36 0 45 0;
#X connect 36 1 35 1;
#X connect 37 0 24 4;
#X connect 38 0 40 0;
#X connect 39 0 46 0;
#X connect 39 1 38 1;
#X connect 40 0 24 5;
#X connect 42 0 26 0;
#X connect 43 0 29 0;
#X connect 44 0 32 0;
#X connect 45 0 35 0;
#X connect 46 0 38 0;
#X connect 47 0 50 0;
#X connect 50 0 1 1;
#X connect 53 0 54 0;
#X connect 55 0 56 0;
#X connect 56 0 1 0;
#X connect 57 0 1 0;
#X connect 58 0 5 0;
#X restore 457 161 pd make-up-name;
#X obj 456 194 s \$0-my-name;
#X obj 450 133 bng 15 250 50 0 empty empty empty 17 7 0 10 -262144
-1 -1;
#X msg 68 469 send call \$2 \$3;
#X obj 99 122 sel 0;
#X msg 99 147 0;
#X obj 99 172 s \$0-onoff;
#X obj 164 644 r \$0-onoff;
#X obj 99 644 loadbang;
#X msg 99 669 1;
#X obj 164 669 == 0;
#X obj 150 744 spigot;
#X obj 245 702 t b f;
#X msg 150 773 1;
#X obj 151 798 s \$0-onoff;
#X obj 694 203 r \$0-onoff;
#X obj 638 205 spigot;
#X obj 633 130 r \$0-my-name;
#X obj 659 164 r \$0-session-name;
#X msg 638 230 0;
#X obj 638 255 s \$0-onoff;
#X obj 358 478 b;
#X obj 358 503 s \$0-server-alive;
#X msg 22 201 symbol off;
#X msg 57 839 set running;
#X obj 55 868 s \$0-status-set;
#X obj 627 603 s \$0-status-set;
#X obj 18 270 s \$0-status-set;
#X msg 17 237 set calling_server;
#X msg 595 524 set call_mismatch;
#X msg 627 558 set no_free_track;
#X obj 595 491 sel 0 -1 -2;
#X obj 277 667 unpack 0 s s s s s s s s s s s s;
#X obj 465 764 s \$0-8-channel-name;
#X obj 485 737 s \$0-10-channel-name;
#X obj 506 713 s \$0-11-channel-name;
#X obj 527 686 s \$0-12-channel-name;
#X obj 363 617 expr ($f1 > 0 && $f1 < 21);
#X connect 1 0 2 0;
#X connect 3 0 4 0;
#X connect 4 0 0 0;
#X connect 4 0 5 0;
#X connect 4 0 46 0;
#X connect 5 0 7 0;
#X connect 5 1 6 0;
#X connect 5 2 1 0;
#X connect 5 2 20 0;
#X connect 5 2 40 0;
#X connect 7 0 8 0;
#X connect 8 0 9 0;
#X connect 9 0 16 0;
#X connect 10 0 18 0;
#X connect 10 1 14 0;
#X connect 10 1 63 0;
#X connect 11 0 12 1;
#X connect 12 0 17 0;
#X connect 13 0 12 2;
#X connect 14 0 28 0;
#X connect 15 0 12 0;
#X connect 16 0 23 0;
#X connect 16 1 19 0;
#X connect 17 0 10 0;
#X connect 19 0 15 0;
#X connect 20 0 21 0;
#X connect 21 0 22 0;
#X connect 22 0 10 0;
#X connect 23 0 45 0;
#X connect 24 0 23 1;
#X connect 25 0 23 2;
#X connect 27 0 74 0;
#X connect 28 0 27 0;
#X connect 28 1 29 0;
#X connect 29 0 73 0;
#X connect 29 0 79 0;
#X connect 39 0 40 1;
#X connect 40 0 41 0;
#X connect 41 0 44 0;
#X connect 42 0 43 0;
#X connect 44 0 42 0;
#X connect 45 0 10 0;
#X connect 46 0 47 0;
#X connect 46 0 65 0;
#X connect 46 1 70 0;
#X connect 47 0 48 0;
#X connect 49 0 52 0;
#X connect 50 0 51 0;
#X connect 51 0 53 1;
#X connect 52 0 53 1;
#X connect 53 0 55 0;
#X connect 54 0 53 0;
#X connect 54 0 66 0;
#X connect 54 1 30 0;
#X connect 55 0 56 0;
#X connect 57 0 58 1;
#X connect 58 0 61 0;
#X connect 59 0 58 0;
#X connect 60 0 58 0;
#X connect 61 0 62 0;
#X connect 63 0 64 0;
#X connect 65 0 69 0;
#X connect 66 0 67 0;
#X connect 70 0 69 0;
#X connect 71 0 68 0;
#X connect 72 0 68 0;
#X connect 73 0 71 0;
#X connect 73 1 71 0;
#X connect 73 2 72 0;
#X connect 74 0 54 0;
#X connect 74 1 31 0;
#X connect 74 2 32 0;
#X connect 74 3 33 0;
#X connect 74 4 34 0;
#X connect 74 5 35 0;
#X connect 74 6 36 0;
#X connect 74 7 37 0;
#X connect 74 8 38 0;
#X connect 74 9 75 0;
#X connect 74 10 76 0;
#X connect 74 11 77 0;
#X connect 74 12 78 0;
#X connect 79 0 27 1;
#X restore 217 -36 pd set-up-call;
#X obj 374 -20 setctl \$0-my-name;
#X obj 376 0 setctl \$0-session-name;
#X obj 41 -10 tgl 15 0 \$0-onoff \$0-onoff-set onoff 17 7 0 10 -262144
-1 -1 0 1;
#X text 628 448 sending;
#X text 628 464 channel;
#X text 197 291 running;
#X obj 34 294 bng 15 250 50 0 empty \$0-server-alive empty 17 7 0 10
-262144 -1 -1;
#X text 51 291 server alive;
#X text 77 158 call name:;
#X symbolatom 33 271 32 0 0 0 - #0-status-set #0-status;
#X text 22 250 ----- status and output stats -----;
#X obj 232 37 vsl 15 101 0 100 0 0 \$0-lvl \$0-lvl-set empty 0 -9 0
10 -262144 -1 -1 5000 1;
#X text 99 30 - SEND AUDIO -;
#X text 165 65 normal;
#X text 173 78 gain -->;
#X obj 654 360 * 1000;
#X obj 659 386 s \$0-local-kbits-set;
#X text 191 312 kbits per sec, f 7;
#N canvas 458 -29 1075 572 save-and-restore 0;
#X obj 111 51 r \$0-save-settings;
#X obj 111 76 b;
#X obj 111 101 savepanel;
#X obj 281 22 r \$0-my-name;
#X obj 295 55 r \$0-session-name;
#X obj 342 131 r \$0-nchan;
#X obj 316 82 r \$0-server;
#X obj 333 107 r \$0-port;
#X obj 360 155 r \$0-blksel;
#X obj 384 181 r \$0-2x;
#X obj 111 126 t s b b;
#X obj 170 446 text define \$0-savebuffer;
#X msg 175 306 clear;
#X obj 221 180 symbol;
#X obj 257 211 pack s s s 0 0 0 0;
#X msg 256 237 list netty call \$1 \$2 \$3 \$4 \$5 \$6 \$7;
#X obj 253 272 text set \$0-savebuffer 1e+09;
#X msg 80 305 write -c \$1;
#X obj 674 62 b;
#X obj 674 37 r \$0-restore-settings;
#X obj 674 87 openpanel;
#X obj 674 112 t b s;
#X obj 770 134 text define \$0-restorebuffer;
#X obj 671 232 route netty;
#X msg 700 265 this doesn't appear to contain call settings.;
#X obj 699 292 print Netty-McNetface;
#X obj 594 272 route call;
#X obj 594 297 list;
#X obj 601 509 s \$0-my-name;
#X obj 617 481 s \$0-session-name;
#X obj 635 453 s \$0-server;
#X obj 656 426 s \$0-port;
#X obj 668 399 s \$0-nchan;
#X obj 687 374 s \$0-blksel;
#X obj 723 348 s \$0-2x;
#X msg 675 151 0;
#X msg 766 106 read -c \$1;
#X obj 523 386 print foo;
#X obj 675 178 text get \$0-restorebuffer;
#X obj 675 203 list trim;
#X obj 594 322 unpack s s s 0 0 0 0;
#X connect 0 0 1 0;
#X connect 1 0 2 0;
#X connect 2 0 10 0;
#X connect 3 0 13 1;
#X connect 4 0 14 1;
#X connect 5 0 14 4;
#X connect 6 0 14 2;
#X connect 7 0 14 3;
#X connect 8 0 14 5;
#X connect 9 0 14 6;
#X connect 10 0 17 0;
#X connect 10 1 13 0;
#X connect 10 2 12 0;
#X connect 12 0 11 0;
#X connect 13 0 14 0;
#X connect 14 0 15 0;
#X connect 15 0 16 0;
#X connect 17 0 11 0;
#X connect 18 0 20 0;
#X connect 19 0 18 0;
#X connect 20 0 21 0;
#X connect 21 0 35 0;
#X connect 21 1 36 0;
#X connect 23 0 26 0;
#X connect 23 1 24 0;
#X connect 24 0 25 0;
#X connect 26 0 27 0;
#X connect 27 0 37 0;
#X connect 27 0 40 0;
#X connect 35 0 38 0;
#X connect 36 0 22 0;
#X connect 38 0 39 0;
#X connect 39 0 23 0;
#X connect 40 0 28 0;
#X connect 40 1 29 0;
#X connect 40 2 30 0;
#X connect 40 3 31 0;
#X connect 40 4 32 0;
#X connect 40 5 33 0;
#X connect 40 6 34 0;
#X restore 184 -8 pd save-and-restore;
#X obj 100 -59 loadbang;
#X msg 349 437 \; \$1-server symbol foo.ucsd.edu \; \$1-port 38400
\; \$1-this-caller 1 \; \$1-nchan 1 \; \$1-block 256 \; \$1-my-name
symbol audioIN \; \$1-session-name symbol blo1 \;;
#X msg 688 44 2048;
#X obj 591 22 sel 0 1 2 3;
#X msg 136 -31 50;
#X msg 97 -28 2;
#X connect 31 0 33 0;
#X connect 31 1 33 1;
#X connect 33 2 59 0;
#X connect 34 0 33 2;
#X connect 35 0 37 0;
#X connect 36 0 91 0;
#X connect 36 0 61 0;
#X connect 37 0 36 0;
#X connect 46 0 47 0;
#X connect 49 0 93 0;
#X connect 50 0 53 0;
#X connect 51 0 53 0;
#X connect 52 0 53 0;
#X connect 54 0 55 0;
#X connect 55 0 46 0;
#X connect 56 0 48 0;
#X connect 57 0 58 0;
#X connect 59 7 60 0;
#X connect 60 1 86 0;
#X connect 63 0 64 0;
#X connect 64 0 65 0;
#X connect 86 0 87 0;
#X connect 90 0 95 0;
#X connect 90 0 94 0;
#X connect 92 0 53 0;
#X connect 93 0 50 0;
#X connect 93 1 51 0;
#X connect 93 2 52 0;
#X connect 93 3 92 0;
#X connect 94 0 82 0;
#X connect 95 0 3 0;
#X coords 0 -1 1 1 300 370 1 15 20;
