#N canvas 562 81 718 307 10;
#X obj 293 119 delwrite~ del 30000;
#X obj 293 142 delread4~ del;
#X obj 16 25 hsl 128 15 0 30000 0 0 \$1-delayLine \$1-delayLine_r empty
-2 -8 0 10 -262144 -1 -1 3600 1;
#X text 14 8 delay time;
#X obj 325 59 adc~;
#X obj 361 198 dac~;
#X obj 395 48 line~;
#X obj 395 26 pack 0 60;
#X obj 422 118 delwrite~ del2 30000;
#X obj 422 141 delread4~ del2;
#X floatatom 14 45 7 0 0 0 - - -;
#X obj 179 57 metro 1000;
#X obj 180 7 loadbang;
#X msg 179 34 1;
#X floatatom 86 65 5 0 0 0 - - -;
#X obj 125 65 bng 15 250 50 0 empty empty empty 17 7 0 10 -262144 -1
-1;
#X text 43 66 timer;
#X obj 178 143 + 1;
#X obj 178 115 f 1;
#X obj 178 172 > 0;
#X obj 175 203 sel 1;
#X obj 219 152 / 1000;
#X msg 190 86 1;
#X connect 1 0 5 0;
#X connect 2 0 7 0;
#X connect 2 0 10 0;
#X connect 4 0 0 0;
#X connect 4 1 8 0;
#X connect 6 0 1 0;
#X connect 6 0 9 0;
#X connect 7 0 6 0;
#X connect 9 0 5 1;
#X connect 10 0 21 0;
#X connect 11 0 18 0;
#X connect 12 0 13 0;
#X connect 13 0 11 0;
#X connect 15 0 22 0;
#X connect 17 0 18 1;
#X connect 17 0 19 0;
#X connect 18 0 17 0;
#X connect 18 0 14 0;
#X connect 19 0 20 0;
#X connect 20 0 22 0;
#X connect 21 0 19 1;
#X connect 22 0 18 1;
#X coords 0 -1 1 1 150 85 2 2 2;
