#N canvas 394 93 657 409 12;
#X obj 143 285 line~;
#X obj 143 194 unpack;
#X obj 166 143 r \$1;
#X obj 142 314 outlet~;
#X obj 166 167 t l b;
#X obj 350 150 f \$2;
#X obj 350 124 loadbang;
#X obj 224 161 f \$3;
#X msg 224 208 20;
#X obj 224 185 sel 0;
#X obj 259 208 moses 0;
#X msg 259 231 0;
#X obj 189 284 f;
#X obj 350 177 sel 0;
#X msg 352 200 16;
#X text 21 11 control an amplitude quartic units \,;
#X text 22 31 \$1 is the name of the receive symbol.;
#X text 20 111 outlet is the level as a signal.;
#X text 21 71 \$3 is ramp time when not specified by received message.
;
#X text 42 90 (default is 20 - to specify zero \, set \$3 negative.)
;
#X obj 143 258 expr $f1*$f1*$f1*$f1*$f2/100000000.;
#X text 20 49 \$2 is output level for an input of 100 (default is 16).
;
#X obj 143 225 max 0;
#X connect 0 0 3 0;
#X connect 1 0 22 0;
#X connect 1 1 0 1;
#X connect 2 0 4 0;
#X connect 4 0 1 0;
#X connect 4 1 12 0;
#X connect 5 0 13 0;
#X connect 6 0 5 0;
#X connect 6 0 7 0;
#X connect 7 0 9 0;
#X connect 8 0 12 1;
#X connect 9 0 8 0;
#X connect 9 1 10 0;
#X connect 10 0 11 0;
#X connect 10 1 12 1;
#X connect 11 0 12 1;
#X connect 12 0 0 1;
#X connect 13 0 14 0;
#X connect 13 1 20 1;
#X connect 14 0 20 1;
#X connect 20 0 0 0;
#X connect 22 0 20 0;
