#N canvas 640 160 803 575 12;
#X obj 132 255 inlet~;
#X obj 32 33 vu 10 80 \$0-vu empty -1 -8 0 10 -66577 -1 0 0;
#X obj 128 468 s \$0-vu;
#X obj 303 318 loadbang;
#X obj 132 284 abs~;
#X obj 132 309 slop~ 0 0 0.3 0 1e+09;
#X obj 203 347 metro 100;
#X obj 129 347 snapshot~;
#X obj 129 372 rmstodb;
#X obj 129 397 moses 1;
#X msg 130 432 -100;
#X obj 177 427 - 88;
#X connect 0 0 4 0;
#X connect 3 0 6 0;
#X connect 4 0 5 0;
#X connect 5 0 7 0;
#X connect 6 0 7 0;
#X connect 7 0 8 0;
#X connect 8 0 9 0;
#X connect 9 0 10 0;
#X connect 9 1 11 0;
#X connect 10 0 2 0;
#X connect 11 0 2 0;
#X coords 0 0 1 1 14 85 2 30 30;
