#N canvas 0 109 1280 669 12;
#X declare -path lib;
#X obj 1142 79 param.change;
#X obj 460 20 adc~;
#X obj 390 602 dac~;
#N canvas 361 108 995 603 generate-controls 0;
#X obj 62 254 unpack 0 s;
#X obj 57 306 * 17;
#X obj 54 359 t f f;
#X obj 112 293 + 1;
#X obj 190 315 list fromsymbol;
#X obj 190 340 list prepend 36;
#X msg 190 288 symbol 0-\$1;
#X obj 190 369 list tosymbol;
#X obj 307 317 list fromsymbol;
#X obj 307 342 list prepend 36;
#X obj 307 371 list tosymbol;
#X msg 307 290 symbol 0-\$1-set;
#X obj 57 331 + 21;
#X obj 64 227 pack 0 s;
#X obj 73 192 f;
#X obj 104 193 + 1;
#X obj 78 102 symbol;
#X obj 76 125 select -;
#X msg 78 151 0;
#X obj 142 126 t b s;
#X msg 508 166 \; amp1 0 \; amp2 0 \; a-samp 0 \; a-steps1 0 \; a-steps2
0 \; b-samp 0 \; b-steps1 0 \; b-steps2 0 \; mix 0 \; detune 0 \; fizz
0 \; fizzpit 0 \; fizzq 0 \; fizzdens 0 \; drumctl 0 \; del1 0 \; del2
0 \; speed 0 \; trim 0 \; depth 0 \; whomp 0 \; limit 0;
#X msg 227 154 set;
#X obj 285 142 list fromsymbol;
#X obj 285 167 list prepend 36;
#X obj 285 196 list tosymbol;
#X msg 285 114 symbol 1-\$1;
#X msg 266 230 add \, add2 \$1 0;
#X obj 61 429 pack 0 s 0 s s 0;
#X obj 59 279 t f f;
#X obj 196 428 - 2;
#X msg 61 462 \; pd-Quacktrip.pd obj 74 \$1 hsl 128 15 0 127 0 0 \$4
\$5 empty -2 -8 0 10 -92394 -1 -1 6000 1 \; pd-Quacktrip.pd obj 206
\$1 nbx 3 15 0 127 0 0 \$4 \$5 empty 0 -8 0 10 -92394 -1 -1 60.4762
256 \; pd-Quacktrip.pd text 250 \$6 \$2 \; pd-Quacktrip.pd obj 330
\$1 param-manage \$2 \$3 \\\$0;
#X msg 514 466 \; pd-Quacktrip.pd obj 74 \$1 hsl 128 15 -200 200 0
0 \$4 \$5 empty -2 -8 0 10 -92394 -1 -1 6000 1 \; pd-Quacktrip.pd obj
206 \$1 nbx 3 15 -1200 1200 0 0 \$4 \$5 empty 0 -8 0 10 -92394 -1 -1
60.4762 256 \; pd-Quacktrip.pd text 250 \$6 \$2 \; pd-Quacktrip.pd
obj 330 \$1 param-manage \$2 \$3 \\\$0;
#X msg 73 15 - \, amp1 \, amp2 \, a-samp \, a-steps1 \, a-steps2 \,
b-samp \, b-steps1 \, b-steps2 \, mix \, detune \, fizz \, fizzpit
\, fizzq \, fizzdens \, drumctl \, del1 \, del2 \, speed \, trim \,
depth \, whomp \, limit;
#X connect 0 0 28 0;
#X connect 0 1 6 0;
#X connect 0 1 11 0;
#X connect 0 1 27 1;
#X connect 1 0 12 0;
#X connect 2 0 27 0;
#X connect 2 1 29 0;
#X connect 3 0 27 2;
#X connect 4 0 5 0;
#X connect 5 0 7 0;
#X connect 6 0 4 0;
#X connect 7 0 27 3;
#X connect 8 0 9 0;
#X connect 9 0 10 0;
#X connect 10 0 27 4;
#X connect 11 0 8 0;
#X connect 12 0 2 0;
#X connect 13 0 0 0;
#X connect 14 0 15 0;
#X connect 14 0 13 0;
#X connect 15 0 14 1;
#X connect 16 0 17 0;
#X connect 17 0 18 0;
#X connect 17 0 21 0;
#X connect 17 1 19 0;
#X connect 17 1 26 0;
#X connect 18 0 14 1;
#X connect 19 0 14 0;
#X connect 19 1 13 1;
#X connect 21 0 20 0;
#X connect 22 0 23 0;
#X connect 23 0 24 0;
#X connect 25 0 22 0;
#X connect 26 0 20 0;
#X connect 27 0 30 0;
#X connect 28 0 1 0;
#X connect 28 1 3 0;
#X connect 29 0 27 5;
#X connect 32 0 16 0;
#X restore 1133 25 pd generate-controls;
#X obj 460 110 +~;
#X obj 479 85 inlet~;
#N canvas 394 55 920 826 grab 0;
#X obj 367 17 bng 15 250 50 0 empty empty empty 17 7 0 10 -262144 -1
-1;
#X msg 262 180 clear;
#X obj 367 37 t b b b;
#X obj 415 74 s \$0-grab-all-params;
#X obj 414 102 r \$0-grabbed-param;
#X msg 414 131 list \$2 \$1;
#X msg 237 239 write /tmp/foo.txt;
#X obj 53 417 text sequence \$0-parambuf;
#X msg 53 385 line 0 \, auto;
#X msg 237 264 read /tmp/foo.txt;
#X obj 54 477 makefilename \$0-%s;
#X obj 53 448 unpack s 0;
#X obj 55 502 pack s 0;
#X msg 55 528 \; \$1 \$2;
#X obj 55 183 vradio 15 1 0 10 empty empty empty 0 -8 0 10 -262144
-1 -1 1;
#X obj 55 356 t b f;
#X obj 29 52 loadbang;
#X obj 29 77 1;
#X obj 686 461 text define -k \$0-presetbuf1;
#A set out1 0 \; amp1 67 \; amp2 0 \; a-samp 1 \; a-steps1 60 \; a-steps2
72 \; b-samp 1 \; b-steps1 60 \; b-steps2 72 \; mix 0 \; detune 0 \;
fizz 0 \; fizzpit 0 \; fizzq 0 \; fizzdens 0 \; drumctl 0 \; del1 0
\; del2 0 \; speed 0 \; trim 0 \; depth 0 \;;
#X obj 626 157 makefilename \$0-presetbuf%d;
#X floatatom 643 77 5 0 0 0 - - -;
#X obj 606 75 f;
#X obj 606 50 bng 15 250 50 0 empty empty empty 17 7 0 10 -262144 -1
-1;
#X obj 607 100 t b f;
#X obj 151 385 makefilename \$0-presetbuf%d;
#X obj 215 212 text define \$0-presetbuf0;
#X obj 604 185 text fromlist \$0-presetbuf0;
#X obj 607 132 text tolist \$0-presetbuf0;
#X obj 414 156 text insert \$0-presetbuf0;
#X floatatom 104 337 5 0 0 0 - - -;
#X obj 64 138 r \$0-program;
#X obj 191 629 text get presetlist;
#X obj 440 752 text define presetlist;
#X obj 195 785 text insert \$0-presetbuf0 1000;
#X msg 440 723 read -c preset/foo.txt;
#X obj 194 703 list;
#X obj 194 728 unpack s 0;
#X obj 275 729 * 127;
#X obj 194 753 pack s 0;
#X floatatom 227 576 5 0 0 0 - - -;
#X obj 227 600 t f b;
#X msg 272 597 clear;
#X obj 198 443 r quacktrip\$1-param;
#X obj 198 468 list;
#X obj 231 16 r \$0-see-params;
#X obj 231 41 t b b;
#X msg 215 179 click;
#X obj 369 631 r quacktrip\$1-paramlist;
#X obj 500 298 text sequence \$0-presetbuf0;
#X msg 500 270 line 0 \, auto;
#X text 610 13 copy to preset;
#X obj 54 107 r quacktrip-global-program;
#X obj 63 159 r quacktrip\$1-program;
#X msg 557 336 set \$1;
#X msg 470 329 add2 \$2;
#X obj 481 239 t b b b;
#X msg 438 382 quacktrip1-param 42 59 122 6 28 29.8161 19.5192 19.5192
114 53 31.8748 22.5389 0 50 0 0 0 40 0 31 24 80 68 37 127 0;
#X obj 438 422 print -n;
#X obj 546 239 symbol quacktrip\$1-paramlist;
#X text 391 16 grab to preset0;
#X msg 190 666 output \$1 \, liveness \$2 \, xover \$3 \, damping \$4
\, size \$5;
#X connect 0 0 2 0;
#X connect 1 0 25 0;
#X connect 2 1 3 0;
#X connect 2 2 1 0;
#X connect 4 0 5 0;
#X connect 5 0 28 0;
#X connect 6 0 25 0;
#X connect 7 0 11 0;
#X connect 8 0 7 0;
#X connect 9 0 25 0;
#X connect 10 0 12 0;
#X connect 11 0 10 0;
#X connect 11 1 12 1;
#X connect 12 0 13 0;
#X connect 14 0 15 0;
#X connect 14 0 29 0;
#X connect 15 0 8 0;
#X connect 15 1 24 0;
#X connect 16 0 17 0;
#X connect 19 0 26 1;
#X connect 20 0 21 1;
#X connect 21 0 23 0;
#X connect 22 0 21 0;
#X connect 23 0 27 0;
#X connect 23 1 19 0;
#X connect 24 0 7 1;
#X connect 27 0 26 0;
#X connect 30 0 14 0;
#X connect 31 0 60 0;
#X connect 34 0 32 0;
#X connect 35 0 36 0;
#X connect 36 0 38 0;
#X connect 36 1 37 0;
#X connect 37 0 38 1;
#X connect 38 0 33 0;
#X connect 39 0 40 0;
#X connect 40 0 31 0;
#X connect 40 1 41 0;
#X connect 41 0 33 0;
#X connect 42 0 43 0;
#X connect 43 0 11 0;
#X connect 44 0 45 0;
#X connect 45 0 46 0;
#X connect 45 0 55 0;
#X connect 45 1 2 0;
#X connect 46 0 25 0;
#X connect 47 0 60 0;
#X connect 48 0 54 0;
#X connect 49 0 48 0;
#X connect 51 0 14 0;
#X connect 52 0 14 0;
#X connect 53 0 56 0;
#X connect 54 0 56 0;
#X connect 55 0 56 0;
#X connect 55 1 49 0;
#X connect 55 2 58 0;
#X connect 56 0 57 0;
#X connect 58 0 53 0;
#X connect 60 0 35 0;
#X restore 1135 55 pd grab;
#X obj 588 32 r quacktrip-global-not-vst;
#X obj 460 55 *~ 1;
#X msg 553 33 0;
#X obj 440 517 r quacktrip-global-not-vst;
#X msg 441 539 0;
#X obj 391 574 *~ 1;
#X obj 436 572 *~ 1;
#N canvas 0 50 750 445 link 0;
#X obj 83 62 setctl \$0-link;
#X obj 279 136 r \$0-link;
#X obj 221 79 r \$0-damp1;
#X obj 221 131 t f f;
#X obj 249 164 spigot;
#X obj 232 244 r \$0-damp2;
#X obj 221 104 max 0.01;
#X obj 181 297 expr $f3*$f1/$f2;
#X obj 181 322 clip 0 1000;
#X obj 181 347 s \$0-damp2;
#X obj 182 205 pack 1 1;
#X obj 184 244 t l b;
#X obj 214 271 f;
#X obj 320 296 expr $f3*$f1/$f2;
#X obj 320 321 clip 0 1000;
#X obj 320 243 t l b;
#X obj 353 270 f;
#X obj 368 243 r \$0-damp3;
#X obj 320 346 s \$0-damp3;
#X obj 613 293 expr $f3*$f1/$f2;
#X obj 613 318 clip 0 1000;
#X obj 613 240 t l b;
#X obj 646 267 f;
#X obj 582 127 r \$0-link;
#X obj 524 122 t f f;
#X obj 552 155 spigot;
#X obj 524 95 max 0.01;
#X obj 485 196 pack 1 1;
#X obj 524 70 r \$0-del1;
#X obj 661 240 r \$0-del3;
#X obj 613 343 s \$0-del3;
#X obj 483 293 expr $f3*$f1/$f2;
#X obj 483 318 clip 0 1000;
#X obj 483 240 t l b;
#X obj 516 267 f;
#X obj 531 240 r \$0-del2;
#X obj 483 343 s \$0-del2;
#X connect 1 0 4 1;
#X connect 2 0 6 0;
#X connect 3 0 10 1;
#X connect 3 1 4 0;
#X connect 4 0 10 0;
#X connect 5 0 12 1;
#X connect 6 0 3 0;
#X connect 7 0 8 0;
#X connect 8 0 9 0;
#X connect 10 0 11 0;
#X connect 10 0 15 0;
#X connect 11 0 7 0;
#X connect 11 1 12 0;
#X connect 12 0 7 2;
#X connect 13 0 14 0;
#X connect 14 0 18 0;
#X connect 15 0 13 0;
#X connect 15 1 16 0;
#X connect 16 0 13 2;
#X connect 17 0 16 1;
#X connect 19 0 20 0;
#X connect 20 0 30 0;
#X connect 21 0 19 0;
#X connect 21 1 22 0;
#X connect 22 0 19 2;
#X connect 23 0 25 1;
#X connect 24 0 27 1;
#X connect 24 1 25 0;
#X connect 25 0 27 0;
#X connect 26 0 24 0;
#X connect 27 0 21 0;
#X connect 27 0 33 0;
#X connect 28 0 26 0;
#X connect 29 0 22 1;
#X connect 31 0 32 0;
#X connect 32 0 36 0;
#X connect 33 0 31 0;
#X connect 33 1 34 0;
#X connect 34 0 31 2;
#X connect 35 0 34 1;
#X restore 1202 54 pd link;
#X obj 528 62 *~ 1;
#X obj 546 85 inlet~;
#X obj 528 112 +~;
#X obj 1142 132 param-manage out1 1 \$0;
#X obj 1143 106 declare -path lib;
#X obj 369 194 quacktrip~;
#X obj 524 274 change;
#X obj 369 629 outlet~;
#X obj 427 630 outlet~;
#X obj 74 168 tgl 15 0 \$0-always-call \$0-always-call-set empty 17
7 0 10 -262144 -1 -1 0 1;
#X obj 91 461 tgl 15 0 \$0-connected \$0-connected-set empty 17 7 0
10 -262144 -1 -1 0 1;
#X text 19 459 connected;
#X text 133 459 packets in;
#X floatatom 212 460 8 0 0 0 - #0-packets-in-set #0-packets-in;
#X floatatom 212 481 6 0 0 0 - #0-dropouts-set #0-dropouts;
#X text 145 480 dropouts;
#X floatatom 71 478 5 0 0 0 - #0-nfill-set #0-nfill;
#X text 29 479 fill;
#X text 25 237 server;
#X symbolatom 76 238 32 0 0 0 - #0-server-set #0-server;
#X symbolatom 90 215 30 0 0 0 - #0-call-name-set #0-call-name;
#X text 19 437 calling;
#X obj 77 441 bng 15 250 50 0 empty \$0-calling empty 17 7 0 10 -262144
-1 -1;
#X obj 843 319 b;
#X obj 846 389 f;
#X obj 878 390 + 1;
#X obj 258 483 bng 15 250 50 0 empty empty empty 17 7 0 10 -262144
-1 -1;
#X text 275 480 reset;
#X msg 793 319 0;
#X obj 753 362 b;
#X obj 753 387 f;
#X obj 781 388 + 1;
#X obj 753 416 speedlim 100;
#X obj 882 297 s \$0-calling;
#X obj 753 443 s \$0-packets-in-set;
#X obj 846 416 s \$0-dropouts-set;
#X obj 651 595 s \$0-nfill-set;
#X obj 1001 304 s \$0-connected-set;
#X obj 1133 279 print quack-panel-\$1;
#X obj 992 356 sel 0;
#X obj 992 381 0;
#X obj 992 406 s \$0-fill-set;
#X obj 114 441 bng 15 250 50 0 empty \$0-server-answered empty 17 7
0 10 -262144 -1 -1;
#X obj 903 328 s \$0-server-answered;
#X obj 703 506 s \$0-remote-sr-set;
#X obj 660 506 t b f;
#X obj 661 534 samplerate~;
#X obj 661 559 s \$0-local-sr-set;
#X floatatom 68 558 6 0 0 0 - #0-remote-sr-set #0-remote-sr;
#X floatatom 68 537 6 0 0 0 - #0-local-sr-set #0-local-sr;
#X obj 729 328 route 0;
#X obj 524 351 line~;
#X obj 484 429 rpole~;
#X obj 524 299 sel 1 0;
#X obj 484 393 *~;
#X obj 524 376 *~ -1;
#X obj 524 400 +~ 1;
#X obj 524 324 1 5;
#X obj 553 324 0.0005;
#X obj 435 429 rpole~;
#X obj 435 392 *~;
#X obj 262 102 vradio 15 1 0 4 \$0-blksel \$0-blksel-set empty 0 -8
0 10 -262144 -1 -1 2;
#X text 280 99 64;
#X text 279 115 128;
#X text 280 129 256;
#X floatatom 130 537 3 0 0 0 - #0-local-ch-set #0-local-ch;
#X floatatom 130 558 3 0 0 0 - #0-remote-ch-set #0-remote-ch;
#X floatatom 181 537 4 0 0 0 - #0-local-blk-set #0-local-blk;
#X floatatom 181 558 4 0 0 0 - #0-remote-blk-set #0-remote-blk;
#X obj 184 119 vradio 15 1 0 3 \$0-nchan \$0-nchan-set empty 0 -8 0
10 -262144 -1 -1 2;
#X text 200 116 0;
#X text 201 131 1;
#X text 201 146 2;
#X text 133 437 found server;
#X obj 838 505 t b f;
#X obj 625 457 unpack 0 0 0 0 0;
#X obj 881 505 s \$0-remote-ch-set;
#X obj 839 558 s \$0-local-ch-set;
#X obj 1017 505 t b f;
#X obj 1231 418 r \$0-blksel;
#X msg 1209 470 64;
#X msg 1244 469 128;
#X msg 1277 469 256;
#X obj 1061 505 s \$0-remote-blk-set;
#X obj 1018 558 s \$0-local-blk-set;
#X obj 1228 496 s \$0-block;
#X obj 1018 534 v \$0-block;
#X obj 839 533 v \$0-nchan;
#X text 37 536 out;
#X text 42 559 in;
#X text 65 503 sample rate, f 6;
#X text 175 504 block size, f 5;
#X text 113 516 channels;
#X floatatom 228 537 6 0 0 0 - #0-local-mbits-set #0-local-mbits;
#X text 222 501 mbits per sec, f 7;
#X text 221 107 block size, f 5;
#X obj 401 64 tgl 15 0 \$0-2x \$0-2x-set empty 17 7 0 10 -262144 -1
-1 0 1;
#X text 398 43 2X;
#X floatatom 228 558 6 0 0 0 - #0-remote-mbits-set #0-remote-mbits
;
#X obj 655 254 route got-packet drop late miss request-call no-peer-yet
running bw, f 68;
#X obj 1141 305 unpack;
#X obj 1182 350 s \$0-local-mbits-set;
#X obj 1141 376 s \$0-remote-mbits-set;
#N canvas 499 95 1267 602 to-quacktrip 0;
#X obj 16 545 outlet;
#X obj 77 223 sel 1 0;
#X obj 13 427 pack 0 s s;
#X obj 46 391 r \$0-server;
#X obj 98 425 r \$0-call-name;
#X msg 535 473 off;
#X msg 17 461 peer \$2 3840 \$3;
#X obj 844 471 r \$0-fifo-size;
#X msg 844 500 nbuf \$1;
#X msg 598 499 block \$1;
#X msg 683 501 nchan \$1;
#X obj 598 469 r \$0-block;
#X obj 77 196 r \$0-onoff;
#X obj 683 471 r \$0-nchan;
#X msg 757 502 repeat \$1;
#X obj 755 474 r \$0-2x;
#X obj 427 10 r \$0-call-name;
#X msg 436 154 0;
#X obj 998 180 loadbang;
#X obj 932 180 f \$0;
#X obj 975 182 bng 15 250 50 0 empty empty empty 17 7 0 10 -262144
-1 -1;
#X obj 1009 283 loadbang;
#X obj 985 309 f \$0;
#X obj 986 285 bng 15 250 50 0 empty empty empty 17 7 0 10 -262144
-1 -1;
#X msg 979 338 \; \$1-call-name symbol poodle;
#X obj 59 345 == 0;
#X obj 19 371 spigot;
#X obj 215 364 spigot;
#X msg 925 209 \; \$1-call-name symbol port_4477;
#X obj 427 35 list fromsymbol;
#X obj 428 61 list split 5;
#X obj 342 97 list tosymbol;
#X msg 228 459 client \$2 \$3;
#X obj 534 100 list tosymbol;
#X symbolatom 339 130 10 0 0 0 - - -;
#X symbolatom 541 124 10 0 0 0 - - -;
#X obj 434 186 symbol;
#X msg 443 98 symbol nope;
#X obj 340 154 select port_;
#X obj 434 211 float;
#X floatatom 447 237 5 0 0 0 - - -;
#X obj 268 364 r \$0-server;
#X obj 227 422 pack 0 s 0;
#X obj 1044 72 loadbang;
#X obj 978 72 f \$0;
#X obj 1021 74 bng 15 250 50 0 empty empty empty 17 7 0 10 -262144
-1 -1;
#X msg 971 101 \; \$1-call-name symbol zz;
#X obj 254 335 == 1;
#X obj 367 380 spigot;
#X obj 407 354 == 2;
#X text 56 318 peer;
#X text 204 333 client;
#X text 359 354 server;
#X obj 646 109 r \$0-server;
#X obj 646 134 select me;
#X msg 647 166 1;
#X msg 698 167 0;
#X obj 642 224 t b f;
#X obj 642 249 +;
#X obj 651 198 tgl 15 0 empty empty empty 17 7 0 10 -262144 -1 -1 0
1;
#X obj 361 436 pack 0 0;
#X msg 361 464 server \$2;
#X obj 600 221 != 0;
#X floatatom 653 275 5 0 0 0 - - -;
#X floatatom 726 227 5 0 0 0 - - -;
#X connect 1 0 26 0;
#X connect 1 0 27 0;
#X connect 1 0 48 0;
#X connect 1 1 5 0;
#X connect 2 0 6 0;
#X connect 3 0 2 1;
#X connect 4 0 2 2;
#X connect 5 0 0 0;
#X connect 6 0 0 0;
#X connect 7 0 8 0;
#X connect 8 0 0 0;
#X connect 9 0 0 0;
#X connect 10 0 0 0;
#X connect 11 0 9 0;
#X connect 12 0 1 0;
#X connect 13 0 10 0;
#X connect 14 0 0 0;
#X connect 15 0 14 0;
#X connect 16 0 29 0;
#X connect 17 0 62 0;
#X connect 18 0 20 0;
#X connect 19 0 28 0;
#X connect 20 0 19 0;
#X connect 21 0 23 0;
#X connect 22 0 24 0;
#X connect 23 0 22 0;
#X connect 25 0 26 1;
#X connect 26 0 2 0;
#X connect 27 0 42 0;
#X connect 29 0 30 0;
#X connect 30 0 31 0;
#X connect 30 1 33 0;
#X connect 30 2 37 0;
#X connect 31 0 34 0;
#X connect 32 0 0 0;
#X connect 33 0 35 0;
#X connect 33 0 36 1;
#X connect 34 0 38 0;
#X connect 36 0 39 0;
#X connect 37 0 34 0;
#X connect 38 0 36 0;
#X connect 38 1 17 0;
#X connect 39 0 40 0;
#X connect 39 0 42 2;
#X connect 39 0 60 1;
#X connect 39 0 62 0;
#X connect 41 0 42 1;
#X connect 42 0 32 0;
#X connect 43 0 45 0;
#X connect 44 0 46 0;
#X connect 45 0 44 0;
#X connect 47 0 27 1;
#X connect 48 0 60 0;
#X connect 49 0 48 1;
#X connect 53 0 54 0;
#X connect 54 0 55 0;
#X connect 54 1 56 0;
#X connect 55 0 59 0;
#X connect 56 0 59 0;
#X connect 57 0 58 0;
#X connect 57 1 58 1;
#X connect 58 0 63 0;
#X connect 58 0 25 0;
#X connect 58 0 47 0;
#X connect 58 0 49 0;
#X connect 59 0 57 0;
#X connect 59 0 64 0;
#X connect 60 0 61 0;
#X connect 61 0 0 0;
#X connect 62 0 58 0;
#X restore 526 216 pd to-quacktrip;
#X obj 638 216 print to-q;
#N canvas 0 50 572 319 meter-out 0;
#X obj 55 82 abs~;
#X obj 55 107 slop~ 0 0 0.3 0 1e+09;
#X obj 55 57 inlet~;
#X obj 218 84 abs~;
#X obj 218 109 slop~ 0 0 0.3 0 1e+09;
#X obj 218 59 inlet~;
#X obj 55 134 snapshot~;
#X obj 218 136 snapshot~;
#X obj 317 39 r \$0-meter;
#X obj 317 64 t b b;
#X obj 55 159 sqrt;
#X obj 218 161 sqrt;
#X obj 55 227 pack;
#X msg 55 252 0 \$1 \$2;
#X obj 55 277 s \$0-rl;
#X obj 55 184 clip 0.02 0.98;
#X obj 218 187 clip 0.02 0.98;
#X connect 0 0 1 0;
#X connect 1 0 6 0;
#X connect 2 0 0 0;
#X connect 3 0 4 0;
#X connect 4 0 7 0;
#X connect 5 0 3 0;
#X connect 6 0 10 0;
#X connect 7 0 11 0;
#X connect 8 0 9 0;
#X connect 9 0 6 0;
#X connect 9 0 7 0;
#X connect 10 0 15 0;
#X connect 11 0 16 0;
#X connect 12 0 13 0;
#X connect 13 0 14 0;
#X connect 15 0 12 0;
#X connect 16 0 12 1;
#X restore 454 492 pd meter-out;
#N canvas 715 136 450 300 meter-thru 0;
#X obj 55 82 abs~;
#X obj 55 107 slop~ 0 0 0.3 0 1e+09;
#X obj 55 134 snapshot~;
#X obj 55 57 inlet~;
#X obj 218 84 abs~;
#X obj 218 109 slop~ 0 0 0.3 0 1e+09;
#X obj 218 136 snapshot~;
#X obj 218 59 inlet~;
#X obj 317 39 r \$0-meter;
#X obj 317 64 t b b;
#X obj 55 159 sqrt;
#X obj 218 161 sqrt;
#X obj 55 216 pack;
#X msg 55 241 0 \$1 \$2;
#X obj 55 266 s \$0-tl;
#X obj 55 184 clip 0.02 0.98;
#X obj 218 187 clip 0.02 0.98;
#X connect 0 0 1 0;
#X connect 1 0 2 0;
#X connect 2 0 10 0;
#X connect 3 0 0 0;
#X connect 4 0 5 0;
#X connect 5 0 6 0;
#X connect 6 0 11 0;
#X connect 7 0 4 0;
#X connect 8 0 9 0;
#X connect 9 0 2 0;
#X connect 9 0 6 0;
#X connect 10 0 15 0;
#X connect 11 0 16 0;
#X connect 12 0 13 0;
#X connect 13 0 14 0;
#X connect 15 0 12 0;
#X connect 16 0 12 1;
#X restore 325 392 pd meter-thru;
#X obj 358 90 amp4~ \$0-thru;
#X obj 376 150 *~;
#X obj 425 151 *~;
#X obj 379 490 +~;
#X obj 398 460 *~;
#X obj 437 461 *~;
#X obj 423 494 +~;
#X text 238 268 thru;
#X text 175 269 receive;
#X text 129 269 send;
#X obj 459 151 *~;
#X obj 493 150 *~;
#X obj 558 111 amp4~ \$0-send;
#X obj 476 461 amp4~ \$0-receive;
#X obj 720 85 env~ 8192;
#X floatatom 720 110 5 0 0 0 - - -;
#N canvas 0 50 450 250 (subpatch) 0;
#X array \$0-tl 2 float 3;
#A 0 0.02 0.02;
#X coords 0 1 2 0 30 70 1 0 0;
#X restore 238 323 graph;
#N canvas 0 50 450 250 (subpatch) 0;
#X array \$0-rl 2 float 3;
#A 0 0.02 0.02;
#X coords 0 1 2 0 30 70 1 0 0;
#X restore 185 322 graph;
#N canvas 0 50 450 250 (subpatch) 0;
#X array \$0-sl 2 float 3;
#A 0 0.02 0.02;
#X coords 0 1 2 0 30 70 1 0 0;
#X restore 128 322 graph;
#X text 118 121 channels;
#X text 52 283 gains -->;
#X text 32 303 (50=normal);
#X text 27 416 -- call status (not settable): -------;
#N canvas 715 136 457 318 meter-send 0;
#X obj 55 82 abs~;
#X obj 55 107 slop~ 0 0 0.3 0 1e+09;
#X obj 55 134 snapshot~;
#X obj 55 57 inlet~;
#X obj 218 84 abs~;
#X obj 218 109 slop~ 0 0 0.3 0 1e+09;
#X obj 218 136 snapshot~;
#X obj 218 59 inlet~;
#X obj 317 39 r \$0-meter;
#X obj 317 64 t b b;
#X obj 55 159 sqrt;
#X obj 218 161 sqrt;
#X obj 55 221 pack;
#X msg 55 246 0 \$1 \$2;
#X obj 55 271 s \$0-sl;
#X obj 55 184 clip 0.02 0.98;
#X obj 218 187 clip 0.02 0.98;
#X connect 0 0 1 0;
#X connect 1 0 2 0;
#X connect 2 0 10 0;
#X connect 3 0 0 0;
#X connect 4 0 5 0;
#X connect 5 0 6 0;
#X connect 6 0 11 0;
#X connect 7 0 4 0;
#X connect 8 0 9 0;
#X connect 9 0 2 0;
#X connect 9 0 6 0;
#X connect 10 0 15 0;
#X connect 11 0 16 0;
#X connect 12 0 13 0;
#X connect 13 0 14 0;
#X connect 15 0 12 0;
#X connect 16 0 12 1;
#X restore 468 185 pd meter-send;
#X obj 128 289 nbx 3 14 0 100 0 0 \$0-send \$0-send-set empty 0 -8
0 10 -262144 -1 -1 50 256;
#X obj 186 289 nbx 3 14 0 100 0 0 \$0-receive \$0-receive-set empty
0 -8 0 10 -262144 -1 -1 50 256;
#X obj 239 289 nbx 3 14 0 100 0 0 \$0-thru \$0-thru-set empty 0 -8
0 10 -262144 -1 -1 50 256;
#X obj 257 173 nbx 3 14 3 100 0 0 \$0-fifo-size \$0-fifo-size-set empty
0 -8 0 10 -262144 -1 -1 100 256;
#X text 38 355 vu meters->;
#X text 38 341 post-fader;
#X text 37 171 call;
#X obj 533 572 r \$0-call-name;
#X obj 547 599 r \$0-server;
#X msg 517 607 0;
#X obj 518 635 s \$0-onoff;
#N canvas 721 23 559 249 loadbang 0;
#X obj 128 41 loadbang;
#X obj 62 41 f \$0;
#X obj 105 43 bng 15 250 50 0 empty empty empty 17 7 0 10 -262144 -1
-1;
#X obj 295 61 loadbang;
#X obj 295 111 s \$0-meter;
#X obj 295 86 metro 50;
#X msg 61 65 \; \$1-onoff 0 \; \$1-fifo-size 100 \; \$1-server symbol
foo.ucsd.edu \; \$1-call-name symbol vst-call-1 \; \$1-block 256 \;
\$1-nchan 2 \; \$1-send 50 \; \$1-receive 50 \; \$1-delayLine_r 0 \;
\$1-thru 50;
#X connect 0 0 2 0;
#X connect 1 0 6 0;
#X connect 2 0 1 0;
#X connect 3 0 5 0;
#X connect 5 0 4 0;
#X restore 834 97 pd loadbang;
#X text 86 194 double-click to type these:;
#X text 125 137 to send;
#X obj 1226 525 r \$0-block;
#X msg 1256 577 1;
#X msg 1225 577 0;
#X msg 1287 577 2;
#X obj 1225 631 s \$0-blksel-set;
#X msg 1225 606 set \$1;
#X obj 1238 157 r \$0-auto-start;
#X obj 1238 182 > 0.5;
#X obj 1238 207 del 10;
#X obj 1238 232 1;
#X obj 1238 257 s \$0-onoff;
#X obj 585 137 param-manage auto-start 1 \$0;
#X text 151 169 receiver delay;
#X obj 75 125 tgl 15 0 \$0-onoff \$0-onoff-set empty 17 7 0 10 -262144
-1 -1 0 1;
#X text 31 112 start;
#X text 23 155 always;
#X text 24 129 a call;
#N canvas 0 50 524 367 setctls 0;
#X obj 199 49 setctl \$0-onoff;
#X obj 199 96 setctl \$0-server;
#X obj 198 120 setctl \$0-call-name;
#X obj 199 73 setctl \$0-fifo-size;
#X obj 197 167 setctl \$0-blksel;
#X obj 197 145 setctl \$0-nchan;
#X obj 196 191 setctl \$0-2x;
#X obj 69 146 setctl \$0-send;
#X obj 70 170 setctl \$0-receive;
#X obj 68 195 setctl \$0-thru;
#X obj 64 233 setctl \$0-always-call;
#X restore 835 70 pd setctls;
#N canvas 871 138 632 456 save-to-camomile 0;
#X obj 67 37 r save;
#X obj 68 97 symbol;
#X obj 67 62 t b;
#X obj 107 65 r \$0-call-name;
#X obj 68 254 list prepend save call-name;
#X obj 68 279 list trim;
#X obj 68 304 s camomile;
#X obj 315 61 r load;
#X obj 315 86 list;
#X obj 315 111 route list;
#X obj 315 136 route call-name;
#X obj 372 281 s \$0-call-name;
#X obj 69 153 pack s s 0;
#X obj 119 95 r \$0-server;
#X obj 136 127 r \$0-always-call;
#X obj 177 155 b;
#X msg 177 180 program updated;
#X obj 177 205 s camomile;
#X obj 315 161 list;
#X obj 367 190 unpack s s 0;
#X obj 396 250 s \$0-server;
#X obj 446 223 s \$0-always-call;
#X obj 315 186 t l l;
#X obj 314 340 unpack s s 0;
#X obj 392 365 sel 0;
#X msg 423 390 1;
#X obj 423 415 s \$0-onoff;
#X connect 0 0 2 0;
#X connect 1 0 12 0;
#X connect 2 0 1 0;
#X connect 3 0 1 1;
#X connect 3 0 15 0;
#X connect 4 0 5 0;
#X connect 5 0 6 0;
#X connect 7 0 8 0;
#X connect 8 0 9 0;
#X connect 9 0 10 0;
#X connect 10 0 18 0;
#X connect 12 0 4 0;
#X connect 13 0 12 1;
#X connect 13 0 15 0;
#X connect 14 0 12 2;
#X connect 14 0 15 0;
#X connect 15 0 16 0;
#X connect 16 0 17 0;
#X connect 18 0 22 0;
#X connect 19 0 11 0;
#X connect 19 1 20 0;
#X connect 19 2 21 0;
#X connect 22 0 23 0;
#X connect 22 1 19 0;
#X connect 23 2 24 0;
#X connect 24 1 25 0;
#X connect 25 0 26 0;
#X restore 835 43 pd save-to-camomile;
#X text 279 144 2048;
#X obj 1231 443 sel 0 1 2 3;
#X msg 1310 469 2048;
#X obj 1226 550 sel 64 128 256 2048;
#X msg 1321 581 3;
#N canvas 126 108 919 670 latency-testing 0;
#N canvas 0 22 450 300 (subpatch) 0;
#X array \$0-pulse 120 float 3;
#A 0 0 0 0 0 0 0 0 0 0 0 -0 -6.19458e-05 -0.000494103 -0.00165937 -0.00390618
-0.00756153 -0.0129244 -0.0202596 -0.0297923 -0.0417031 -0.0561239
-0.0731343 -0.0927595 -0.114969 -0.139674 -0.166732 -0.195943 -0.227055
-0.259767 -0.293732 -0.328561 -0.363831 -0.39909 -0.433862 -0.467657
-0.499977 -0.530324 -0.558209 -0.583156 -0.604713 -0.622461 -0.636015
-0.645036 -0.649234 -0.648374 -0.642282 -0.630843 -0.614012 -0.591808
-0.564318 -0.531698 -0.494168 -0.452014 -0.405579 -0.355267 -0.301528
-0.244862 -0.185805 -0.124926 -0.0628189 -9.26574e-05 0.0626345 0.124745
0.185628 0.244691 0.301365 0.355113 0.405437 0.451883 0.494051 0.531595
0.56423 0.591735 0.613955 0.630802 0.642256 0.648364 0.649239 0.645055
0.636048 0.622507 0.604771 0.583224 0.558287 0.53041 0.500069 0.467754
0.433963 0.399193 0.363935 0.328665 0.293834 0.259866 0.22715 0.196032
0.166815 0.139751 0.115038 0.0928211 0.0731882 0.0561701 0.0417419
0.0298239 0.0202844 0.012943 0.00757468 0.00391473 0.00166424 0.000496283
6.24961e-05 0 0 0 0 0 0 0 0 0 0;
#X coords 0 1 119 -1 200 140 1;
#X restore 17 257 graph;
#X obj 38 447 t b b;
#X obj 109 508 f;
#X obj 147 508 + 1;
#X obj 38 476 until;
#X obj 109 536 t f f;
#X obj 30 619 tabwrite pulse;
#X obj 36 423 bng 15 250 50 0 empty empty empty 17 7 0 10 -262144 -1
-1;
#X msg 129 430 \; pulse const 0;
#X msg 126 480 0;
#X obj 26 536 sel 100;
#X obj 141 619 + 10;
#X obj 33 567 * 0.06283;
#X obj 505 204 metro 1000;
#X obj 504 178 tgl 15 0 empty empty empty 17 7 0 10 -262144 -1 -1 0
1;
#X obj 369 157 vline~;
#X obj 294 297 *~ 1e+10;
#X obj 294 324 clip~ 0 1;
#X obj 294 348 *~ 1e+10;
#X obj 295 384 lop~ 3;
#X obj 296 408 clip~ 0 1;
#X msg 501 354 clear;
#X msg 370 126 0 \, 12000 10;
#X obj 679 208 osc~ 220;
#X obj 618 248 *~ 0.03;
#X obj 69 85 bp~ 220 0.7;
#X obj 582 252 +~;
#X obj 68 109 rzero~ -1;
#X obj 69 134 rzero~ -1;
#X obj 69 160 *~ 0.15;
#X obj 293 109 rzero~ 1;
#X obj 294 134 rzero~ 1;
#X obj 30 592 expr -0.5 * (1-cos($f1)) * sin($f1);
#X obj 294 85 bp~ 2000 0.7;
#X obj 296 246 *~ 20;
#X obj 369 213 *~ 0.1;
#X obj 180 82 env~ 65536;
#X floatatom 180 109 4 0 0 0 - - -;
#X obj 69 187 bonk~;
#X obj 69 212 bng 15 250 50 0 empty empty empty 17 7 0 10 -262144 -1
-1;
#X obj 295 270 -~ 0.1;
#X obj 297 437 -~ 1;
#X obj 297 464 *~ -1;
#X obj 325 514 phasor~;
#X msg 487 447 0;
#X obj 469 523 del 800;
#X obj 323 554 snapshot~;
#X floatatom 323 605 6 0 0 0 - - -;
#X obj 324 582 * 1000;
#X obj 386 600 s latency;
#X obj 112 214 s discontinuity;
#X obj 367 297 *~ 1e+10;
#X obj 367 324 clip~ 0 1;
#X obj 367 348 *~ 1e+10;
#X obj 368 384 lop~ 3;
#X obj 369 408 clip~ 0 1;
#X obj 368 270 -~ 0.1;
#X obj 368 246 *~ 20;
#X obj 324 490 *~;
#X obj 581 277 outlet~;
#X obj 659 130 switch~;
#X obj 444 30 r~ \$0-loopback;
#X obj 659 44 vradio 15 1 0 3 empty empty empty 0 -8 0 10 -262144 -1
-1 2;
#X floatatom 673 98 5 0 0 0 - - -;
#X text 680 41 off;
#X obj 504 153 == 1;
#X text 680 57 measure latency;
#X text 681 71 loop-back;
#X obj 619 170 tgl 15 0 empty empty empty 17 7 0 10 -262144 -1 -1 0
1;
#X obj 619 145 == 2;
#X obj 583 172 *~ 0;
#X obj 571 82 writesf~;
#X msg 564 9 open /tmp/foo.wav \, start;
#X msg 584 39 stop;
#X obj 618 207 * 0.03;
#X obj 368 188 tabread4~ \$0-pulse;
#X obj 779 15 r latencyTest;
#X connect 1 0 4 0;
#X connect 1 1 9 0;
#X connect 1 1 8 0;
#X connect 2 0 3 0;
#X connect 2 0 5 0;
#X connect 2 0 10 0;
#X connect 3 0 2 1;
#X connect 4 0 2 0;
#X connect 5 0 12 0;
#X connect 5 1 11 0;
#X connect 7 0 1 0;
#X connect 9 0 2 1;
#X connect 10 0 4 1;
#X connect 11 0 6 1;
#X connect 12 0 32 0;
#X connect 13 0 22 0;
#X connect 13 0 21 0;
#X connect 13 0 44 0;
#X connect 13 0 45 0;
#X connect 14 0 13 0;
#X connect 14 0 74 0;
#X connect 15 0 75 0;
#X connect 16 0 17 0;
#X connect 17 0 18 0;
#X connect 18 0 19 0;
#X connect 19 0 20 0;
#X connect 20 0 41 0;
#X connect 21 0 19 0;
#X connect 22 0 15 0;
#X connect 23 0 24 0;
#X connect 24 0 26 1;
#X connect 25 0 27 0;
#X connect 26 0 59 0;
#X connect 27 0 28 0;
#X connect 28 0 29 0;
#X connect 29 0 38 0;
#X connect 30 0 31 0;
#X connect 31 0 34 0;
#X connect 32 0 6 0;
#X connect 33 0 30 0;
#X connect 34 0 40 0;
#X connect 35 0 26 0;
#X connect 35 0 57 0;
#X connect 36 0 37 0;
#X connect 38 0 39 0;
#X connect 38 0 50 0;
#X connect 40 0 16 0;
#X connect 41 0 42 0;
#X connect 42 0 58 0;
#X connect 43 0 46 0;
#X connect 44 0 43 1;
#X connect 45 0 46 0;
#X connect 46 0 48 0;
#X connect 48 0 47 0;
#X connect 48 0 49 0;
#X connect 51 0 52 0;
#X connect 52 0 53 0;
#X connect 53 0 54 0;
#X connect 54 0 55 0;
#X connect 55 0 58 1;
#X connect 56 0 51 0;
#X connect 57 0 56 0;
#X connect 58 0 43 0;
#X connect 61 0 36 0;
#X connect 61 0 33 0;
#X connect 61 0 25 0;
#X connect 61 0 70 0;
#X connect 61 0 71 0;
#X connect 62 0 63 0;
#X connect 62 0 60 0;
#X connect 62 0 65 0;
#X connect 62 0 69 0;
#X connect 65 0 14 0;
#X connect 68 0 70 1;
#X connect 69 0 68 0;
#X connect 70 0 26 0;
#X connect 72 0 71 0;
#X connect 73 0 71 0;
#X connect 74 0 24 1;
#X connect 75 0 35 0;
#X connect 76 0 62 0;
#X restore 319 16 pd latency-testing;
#X obj 237 27 vradio 15 1 0 3 latencyTest empty empty 0 -8 0 10 -262144
-1 -1 2;
#X text 256 25 off;
#X text 253 41 latency;
#X floatatom 260 76 6 0 0 0 - latency -;
#X obj 380 289 s~ \$0-loopback;
#X text 253 57 loopBack;
#X obj 321 327 delwrite~ del 30000;
#X obj 350 354 delread4~ del;
#X floatatom 833 174 0 0 1000 0 - - -;
#X obj 817 230 line~;
#X msg 817 147 10000;
#X obj 411 242 delwrite~ del2 30000;
#X obj 403 267 delread4~ del2;
#X obj 33 65 hsl 128 15 0 30000 0 0 \$1-delayLine \$1-delayLine_r empty
-2 -8 0 10 -262144 -1 -1 0 1;
#X text 30 48 extra delay line;
#X floatatom 30 83 7 0 0 0 - - -;
#X obj 871 174 r \$1-delayLine;
#X obj 832 201 pack 0 500;
#X text 19 211 call name;
#X text 82 21 Quack IN TCP, f 28;
#X connect 4 0 123 0;
#X connect 4 0 132 0;
#X connect 5 0 4 1;
#X connect 7 0 9 0;
#X connect 8 0 4 0;
#X connect 9 0 8 1;
#X connect 9 0 15 1;
#X connect 10 0 11 0;
#X connect 11 0 12 1;
#X connect 11 0 13 1;
#X connect 12 0 2 0;
#X connect 13 0 2 1;
#X connect 15 0 17 0;
#X connect 16 0 17 1;
#X connect 17 0 124 0;
#X connect 17 0 133 0;
#X connect 20 0 189 0;
#X connect 20 0 191 0;
#X connect 20 1 196 0;
#X connect 20 2 114 0;
#X connect 21 0 68 0;
#X connect 38 0 39 0;
#X connect 39 0 40 0;
#X connect 39 0 50 0;
#X connect 40 0 39 1;
#X connect 41 0 43 0;
#X connect 43 0 45 0;
#X connect 43 0 39 0;
#X connect 44 0 45 0;
#X connect 45 0 46 0;
#X connect 45 0 47 0;
#X connect 46 0 45 1;
#X connect 47 0 49 0;
#X connect 54 0 55 0;
#X connect 55 0 56 0;
#X connect 60 0 61 0;
#X connect 60 1 59 0;
#X connect 61 0 62 0;
#X connect 65 1 44 0;
#X connect 66 0 70 0;
#X connect 66 0 69 1;
#X connect 66 0 75 1;
#X connect 67 0 127 0;
#X connect 68 0 72 0;
#X connect 68 1 73 0;
#X connect 69 0 67 0;
#X connect 70 0 71 0;
#X connect 71 0 67 1;
#X connect 71 0 74 1;
#X connect 72 0 66 0;
#X connect 73 0 66 0;
#X connect 74 0 126 0;
#X connect 75 0 74 0;
#X connect 89 0 102 0;
#X connect 89 1 91 0;
#X connect 90 0 21 0;
#X connect 90 1 51 0;
#X connect 90 2 60 0;
#X connect 90 3 89 0;
#X connect 90 4 93 0;
#X connect 93 0 101 0;
#X connect 93 1 98 0;
#X connect 94 0 180 0;
#X connect 95 0 100 0;
#X connect 96 0 100 0;
#X connect 97 0 100 0;
#X connect 101 0 99 0;
#X connect 102 0 92 0;
#X connect 114 0 65 0;
#X connect 114 0 90 0;
#X connect 114 1 38 0;
#X connect 114 2 38 0;
#X connect 114 3 38 0;
#X connect 114 4 48 0;
#X connect 114 5 58 0;
#X connect 114 6 54 0;
#X connect 114 6 52 0;
#X connect 114 7 115 0;
#X connect 114 8 53 0;
#X connect 115 0 117 0;
#X connect 115 1 116 0;
#X connect 118 0 20 2;
#X connect 122 0 123 1;
#X connect 122 0 124 1;
#X connect 122 0 136 0;
#X connect 125 0 12 0;
#X connect 125 0 22 0;
#X connect 126 0 125 1;
#X connect 126 0 120 0;
#X connect 127 0 128 1;
#X connect 127 0 120 1;
#X connect 128 0 13 0;
#X connect 128 0 23 0;
#X connect 132 0 20 0;
#X connect 132 0 145 0;
#X connect 133 0 20 1;
#X connect 133 0 145 1;
#X connect 134 0 133 1;
#X connect 134 0 132 1;
#X connect 135 0 126 1;
#X connect 135 0 127 1;
#X connect 136 0 137 0;
#X connect 153 0 155 0;
#X connect 154 0 155 0;
#X connect 155 0 156 0;
#X connect 160 0 182 0;
#X connect 161 0 165 0;
#X connect 162 0 165 0;
#X connect 163 0 165 0;
#X connect 165 0 164 0;
#X connect 166 0 167 0;
#X connect 167 0 168 0;
#X connect 168 0 169 0;
#X connect 169 0 170 0;
#X connect 180 0 95 0;
#X connect 180 1 96 0;
#X connect 180 2 97 0;
#X connect 180 3 181 0;
#X connect 181 0 100 0;
#X connect 182 0 162 0;
#X connect 182 1 161 0;
#X connect 182 2 163 0;
#X connect 182 3 183 0;
#X connect 183 0 165 0;
#X connect 184 0 20 0;
#X connect 192 0 125 0;
#X connect 192 0 121 0;
#X connect 192 0 75 0;
#X connect 193 0 202 0;
#X connect 194 0 192 0;
#X connect 194 0 197 0;
#X connect 195 0 202 0;
#X connect 197 0 128 0;
#X connect 197 0 121 1;
#X connect 197 0 69 0;
#X connect 198 0 200 0;
#X connect 198 0 202 0;
#X connect 202 0 194 0;
#X coords 0 -1 1 1 300 562 1 15 20;
